<svg width="24" height="24" viewBox="0 0 24 24" fill="none" xmlns="http://www.w3.org/2000/svg">
<circle cx="12" cy="12" r="12" fill="#3D8AFF"/>
<path d="M8.71119 17.704C8.71119 17.56 8.69519 17.496 8.63119 17.496L8.26319 17.672C8.26319 17.592 8.21519 17.544 8.13519 17.512L8.00719 17.496C7.89519 17.496 7.84719 17.512 7.68719 17.608C7.63919 17.512 7.57519 17.4 7.52719 17.304C7.11119 16.504 6.67919 15.304 6.48719 14.776C6.39119 14.504 6.29519 13.944 6.18319 13.096C6.31119 13.176 6.40719 13.208 6.45519 13.208C6.51919 13.208 6.59919 13.096 6.66319 12.872C6.69519 12.92 6.75919 12.936 6.83919 12.936C6.88719 12.936 6.95119 12.92 6.98319 12.872L7.23919 12.488L7.52719 12.584H7.54319C7.57519 12.584 7.62319 12.536 7.70319 12.488C7.78319 12.44 7.84719 12.408 7.89519 12.408L7.94319 12.424C8.19919 12.552 8.37519 12.776 8.45519 13.128C8.64719 13.944 8.82319 14.344 9.03119 14.344C9.20719 14.344 9.44719 14.136 9.70319 13.736C9.95919 13.336 10.2152 12.792 10.5032 12.136C10.5192 12.264 10.5352 12.328 10.5672 12.328C10.6632 12.328 10.9032 11.768 11.4952 10.824C12.3752 9.4 14.5512 6.664 15.1112 6.28C15.5272 5.992 15.8472 5.72 16.0712 5.48C16.0392 5.64 16.0072 5.752 16.0072 5.8C16.0072 5.848 16.0392 5.864 16.0712 5.864L16.5192 5.64V5.704C16.5192 5.784 16.5352 5.832 16.5832 5.832C16.6472 5.832 16.9032 5.576 16.9352 5.48L16.9032 5.704L17.4472 5.384L17.3192 5.672C17.4792 5.56 17.6072 5.496 17.6872 5.496C17.7672 5.496 17.8152 5.624 17.8152 5.704C17.8152 5.832 17.7032 6.008 17.5272 6.232C17.3352 6.488 16.8552 6.984 15.4152 8.632C14.7912 9.336 12.0232 13.096 11.4952 13.992L10.5032 15.672C10.0712 16.392 9.79919 16.856 9.65519 17.032C9.51119 17.208 9.33519 17.384 9.12719 17.544L8.98319 17.464L8.85519 17.544L8.71119 17.704Z" fill="white"/>
</svg>
