<svg width="448" height="154" viewBox="0 0 448 154" fill="none" xmlns="http://www.w3.org/2000/svg">
<path d="M170.956 82.1359C170.956 85.7464 171.946 88.6079 173.93 90.7185C175.911 92.8309 178.602 93.8872 181.999 93.8872C185.351 93.8872 188.023 92.8082 190.016 90.6483C192.011 88.4903 193.007 85.5814 193.007 81.9235C193.007 78.6429 191.964 75.9483 189.876 73.8358C187.786 71.7253 185.162 70.669 181.999 70.669C178.743 70.669 176.09 71.7366 174.036 73.8719C171.982 76.0071 170.956 78.7624 170.956 82.1359ZM161.612 82.2079C161.612 79.4716 162.114 76.868 163.117 74.4009C164.12 71.9357 165.577 69.7474 167.488 67.836C169.447 65.879 171.652 64.3734 174.106 63.3247C176.56 62.2723 179.109 61.7489 181.752 61.7489C184.56 61.7489 187.151 62.2154 189.521 63.1465C191.893 64.0794 194.068 65.477 196.052 67.341C198.081 69.2999 199.649 71.5584 200.76 74.1203C201.868 76.6803 202.423 79.3047 202.423 81.9937C202.423 84.967 201.94 87.6806 200.971 90.1363C200.004 92.5901 198.553 94.8069 196.617 96.7904C194.683 98.7948 192.477 100.312 189.999 101.338C187.521 102.365 184.832 102.877 181.928 102.877C179.002 102.877 176.336 102.36 173.93 101.321C171.523 100.281 169.329 98.7246 167.346 96.6482C165.459 94.6191 164.031 92.3834 163.062 89.941C162.095 87.4986 161.612 84.9215 161.612 82.2079" fill="white"/>
<path d="M215.145 62.9173V67.3413C216.465 65.5702 217.982 64.2617 219.693 63.4122C221.405 62.5627 223.356 62.1379 225.55 62.1379C228.689 62.1379 231.374 62.6916 233.604 63.8028C235.834 64.9103 237.751 66.6454 239.355 69.0043C240.889 66.6909 242.611 64.969 244.523 63.837C246.434 62.703 248.547 62.1379 250.858 62.1379C255.625 62.1379 259.283 63.636 261.832 66.6321C264.379 69.6301 265.655 73.9252 265.655 79.5155V101.852H256.735V84.6127C256.735 79.3277 256.151 75.7362 254.983 73.8361C253.814 71.936 251.791 70.986 248.913 70.986C245.915 70.986 243.774 72.0536 242.486 74.1888C241.202 76.3259 240.558 79.9876 240.558 85.1797V101.852H231.569V84.6127C231.569 79.3505 230.972 75.7646 229.781 73.855C228.588 71.9417 226.506 70.986 223.533 70.986C220.514 70.986 218.343 72.0536 217.021 74.1888C215.699 76.3259 215.039 79.9876 215.039 85.1797V101.852H206.295V62.9173H215.145Z" fill="white"/>
<path d="M279.896 62.9173V67.3413C281.216 65.5702 282.733 64.2617 284.443 63.4122C286.154 62.5627 288.107 62.1379 290.301 62.1379C293.109 62.1379 295.558 62.6688 297.645 63.7308C299.733 64.7927 301.472 66.3856 302.866 68.5094C303.763 69.9259 304.406 71.534 304.794 73.3412C305.183 75.1464 305.378 77.7823 305.378 81.2506V101.852H296.318V84.6127C296.318 79.3979 295.717 75.8253 294.513 73.8892C293.309 71.9531 291.234 70.986 288.283 70.986C285.265 70.986 283.093 72.0536 281.77 74.1888C280.45 76.3259 279.788 79.9876 279.788 85.1797V101.852H271.046V62.9173H279.896Z" fill="white"/>
<path d="M311.445 62.9172H320.295V101.852H311.445V62.9172ZM320.295 58.952H311.445V50.3163H320.295V58.952Z" fill="white"/>
<path d="M330.65 101.852V70.9876H324.704V62.917H330.65V50.3162H339.711V62.917H345.694V70.9876H339.711V101.852H330.65Z" fill="white"/>
<path d="M369.047 70.8101C365.531 71.0926 363.077 72.0142 361.683 73.5692C360.293 75.1279 359.596 77.9344 359.596 81.9944V101.852H350.533V62.9177H359.03V67.4119C360.398 65.6655 361.896 64.3855 363.525 63.572C365.152 62.7566 366.993 62.3508 369.047 62.3508V70.8101Z" fill="white"/>
<path d="M400.035 78.0664C399.256 75.4685 397.951 73.4945 396.123 72.1387C394.297 70.779 391.988 70.102 389.204 70.102C386.799 70.102 384.638 70.834 382.726 72.2979C380.817 73.76 379.531 75.6828 378.869 78.0664H400.035ZM378.55 85.2534C378.856 88.0599 379.973 90.271 381.896 91.8885C383.818 93.5041 386.302 94.3119 389.344 94.3119C391.375 94.3119 393.197 93.8872 394.813 93.0376C396.431 92.1881 397.711 90.9953 398.653 89.4631H408.423C406.773 93.7108 404.3 97.0085 401.008 99.3561C397.716 101.704 393.912 102.877 389.594 102.877C386.691 102.877 384.017 102.365 381.577 101.338C379.135 100.312 376.944 98.7948 375.012 96.7904C373.171 94.8789 371.743 92.666 370.728 90.1534C369.714 87.6408 369.206 85.0619 369.206 82.4184C369.206 79.7067 369.672 77.1524 370.603 74.7574C371.536 72.3624 372.909 70.2063 374.728 68.2968C376.709 66.1957 378.951 64.58 381.452 63.448C383.955 62.314 386.538 61.7489 389.204 61.7489C392.579 61.7489 395.729 62.515 398.653 64.0491C401.579 65.5832 404.071 67.7431 406.122 70.5268C407.374 72.2012 408.299 74.0767 408.902 76.155C409.502 78.2295 409.803 80.6132 409.803 83.304C409.803 83.5164 409.792 83.8406 409.769 84.2768C409.746 84.7129 409.733 85.0391 409.733 85.2534H378.55V85.2534Z" fill="white"/>
<path d="M422.276 101.852H413.534V50.3162H422.276V80.9678L434.913 62.917H445.142L431.657 81.3925L447.796 101.852H436.436L422.276 82.0657V101.852Z" fill="white"/>
<path d="M115.179 10.413C104.329 4.08636 92.5624 0.742531 80.826 0.107413L76.5276 7.35646L118.188 80.208L141.646 36.1258C135.263 25.8486 126.36 16.9305 115.179 10.413Z" fill="#FFDD00"/>
<path d="M143.804 113.359C157.792 87.8218 155.701 57.6158 140.704 34.6533L94.7278 113.527L143.804 113.359Z" fill="#FF9900"/>
<path d="M37.7312 110.754C38.8559 113.459 39.5118 116.429 39.5969 119.555C39.9182 119.544 40.2395 119.532 40.5647 119.532C56.9624 119.532 70.9218 133.564 76.1653 153.182C102.657 153.309 128.487 139.697 142.787 115.168C143.547 113.86 144.253 112.531 144.936 111.198L37.7312 110.754Z" fill="#790F5B"/>
<path d="M35.6027 73.5631L11.0618 116.262C17.4734 126.879 26.5598 136.086 38.0297 142.772C51.5638 150.66 66.5156 153.921 81.0647 153.059L35.6027 73.5631Z" fill="#2A8FBD"/>
<path d="M12.5093 118.531L81.5104 0.153297C53.4896 -1.62352 25.5274 12.109 10.4263 38.0166C-4.67479 63.926 -2.84504 95.0241 12.5093 118.531Z" fill="#A1A1A1"/>
</svg>
